<svg xmlns="http://www.w3.org/2000/svg" xmlns:xlink="http://www.w3.org/1999/xlink" width="100" height="35" version="1.1" id="layer" x="0px" y="0px" style="enable-background:new 0 0 652 652;" xml:space="preserve" viewBox="26.72 267.8 600.08 116.4">
<style type="text/css">
	.st0{fill:#7D3F98;}
</style>
<path class="st0" d="M300.3,344.1c28,0,42.4-8.8,42.4-27.7c0-16.3-11.9-27.2-37.7-27.2c-31.2,0-43.7,13.9-46.6,38.9  c-4.6-0.3-9.5-0.4-16.3-0.4c0-1.4,0-2.7,0-4.1c0-25.3-10.5-34.5-38.4-34.5c-13.7,0-25.7,2-33,5l1.1,20.2c6.4-3.4,15.9-6.7,25-6.7  c12.8,0,16.7,5.3,16.7,17.9l0,1.9c-0.9,0-3.1,0-4.4,0c-31.8,0-46.6,9.6-46.6,27.5c0,18.4,9.2,29.2,35.3,29.2  c13.7,0,27.3-1.9,44.8-1.9c-1.3-7.4-1.3-18-1.3-25.3c0-3.8,0.2-8.4,0.4-13.7c7.5,0.1,13,0.3,16.6,0.4c2.7,29.6,18,40.5,50,40.5  c11.8,0,23.7-2,30-4.9l-1.1-20.2c-6.2,3.6-14.8,6.5-24.3,6.5c-15.7,0-24.2-8.2-24.2-21.1v-0.6C291.4,344,297,344.1,300.3,344.1z   M204.6,366.5c-9.7,0-13.8-3.2-13.8-11.4c0-7.8,5.3-12.3,18.5-12.3c1.2,0,2.7,0,3.8,0.1c-0.1,7.6-0.2,16.4,0.2,22.5  C210.9,366.1,207.5,366.5,204.6,366.5z M288.5,328.5V328c0-12.7,4-22,15.7-22c6.6,0,10.8,3.5,10.8,9.7c0,8.8-5.9,12.9-18.1,12.9  C293.9,328.7,290.8,328.7,288.5,328.5z M400.1,364c-9.4,0-12.1-3.7-12.1-17.3v-35.2h18.5v-19.5h-18.2c0-6.9,0.5-17.1,1.1-24.2h-17.1  c-2.3,17.1-7.2,25.9-22.8,28.5c-0.1,4.6,0.2,10.9,0,15.2h10.4c-0.2,9.7-0.5,27.4-0.5,43.6c0,20.6,10.7,29,30.7,29  c9.8,0,16.9-1.4,19.3-2.1l-1.2-20.1C406.4,363.1,403,364,400.1,364z M595.2,323.6c0-25.3-10.5-34.5-38.4-34.5c-13.7,0-25.7,2-33,5  l1.1,20.2c6.4-3.4,15.9-6.7,25-6.7c12.8,0,16.7,5.3,16.7,17.9v1.9c-0.9,0-3.1,0-4.4,0c-31.9,0-46.6,9.6-46.6,27.5  c0,18.4,9.2,29.2,35.3,29.2c13.7,0,27.3-1.9,44.8-1.9c-1.3-7.4-1.3-18-1.3-25.3C594.4,348.7,595.2,337.1,595.2,323.6z M557.7,366.5  c-9.7,0-13.8-3.2-13.8-11.4c0-7.8,5.3-12.3,18.5-12.3c1.2,0,2.7,0,3.8,0.1c0,7.6-0.2,16.4,0.2,22.5  C564,366.1,560.6,366.5,557.7,366.5z M504,340.1c0-7.6,0.2-17.8,0.2-17.8c0-22.9-10-33.1-38.4-33.1c-15.9,0-27.3,2.8-45,2.8  c1,16,1,35.9,1,48.2c0.1,12.5-0.4,34.9-1,42.1h30.5c-0.7-7.2-1.3-28-1.2-42.1c0-8,0.1-17.7,0.4-30.6c3-1,6.9-1.8,11.1-1.8  c10.7,0,14.1,5,14.1,18.8c0,0,0.2,8.6,0.2,13.7c0,12.5-0.4,34.9-1,42.1h30.5C504.5,374.9,503.9,354.1,504,340.1z M126.5,285.1  c-2.8-2.8-6.6-4.3-10.3-4.3c-3.7,0-7.5,1.4-10.3,4.3L89.1,302l-16.9-16.9c-2.9-2.9-6.6-4.3-10.3-4.3s-7.4,1.4-10.3,4.3L31,305.6  c-5.7,5.7-5.7,14.9,0,20.6l58,58l58-58c5.7-5.7,5.7-14.9,0-20.6L126.5,285.1z M619.4,294.4c0-3.1-1.9-4.4-5.5-4.4h-5.8v15.1h2.5  v-6.5h2.3l3.9,6.5h2.8l-4.2-6.7C617.8,298.2,619.4,297.1,619.4,294.4z M610.6,296.6v-4.4h3c1.5,0,3.3,0.2,3.3,2  c0,2.2-1.6,2.4-3.5,2.4L610.6,296.6L610.6,296.6z M613.4,283.7c-7.2,0-13.5,5.5-13.5,13.7c0,7.8,5.6,13.7,13.5,13.7  c7.2,0,13.4-5.4,13.4-13.7C626.7,289.1,620.5,283.7,613.4,283.7z M613.4,308.6c-6.5,0-10.5-5.1-10.5-11.3c0-6.7,4.6-11.3,10.5-11.3  c5.9,0,10.4,4.7,10.4,11.3C623.8,304,619.2,308.6,613.4,308.6z"/>
</svg>