<svg xmlns="http://www.w3.org/2000/svg" viewBox="0 0 161.75 51.54" width="80" heigth="20"><g fill="#1d50a0"><path d="M76.5337 30.484c-.1087 0-.1837-.0863-.1837-.2012 0-.1163.0775-.2013.19-.2013s.1887.0825.1887.2013c0 .115-.0763.2012-.1912.2012h-.004zm61.5782 11.741c-.5838-.0113-2.4438.0163-3.0038 0 .2175-2.2712.19-3.4475.1638-7.6337-4.5638-7.6863-5.0838-8.4213-6.7775-11.185.9475.0125 2.77.0175 3.6612 0 1.1225 2.8462 2.4863 5.1125 3.6625 7.1362.5738 1.0125 1.2025 2.0788 1.3913 2.0788.165 0 .9025-1.3388 1.0912-1.6675 1.4238-2.4625 2.7075-4.8938 3.8-7.5475.6025-.015 1.8488.035 2.5138 0-1.065 1.5062-4.9738 7.6575-6.1475 9.845-.2463.4375-.3825.7937-.52 1.1212-.0275.41-.0275.93-.0275 1.5063 0 1.0125.0562 4.1837.1925 6.3462m-91.28-.04h-2.2025l.2725-18.87h1.0062L59.307 37.5538l-.3525-14.2388h2.2287l-.3525 19.04h-.9525l-13.48-14.1862z"/><path d="M78.2975 23.4176h2.4363l-7.8763 18.7675h-2.1387l-7.5275-18.7675h3.4662l5.9013 15.7038zm13.465 7.9888v1.7525s-3.0325-.2738-4.1987-.2738c-.7325 0-1.5163.0275-2.195.055-.0275 1.17 0 7.05.0275 7.785 1.7337 0 7.125-.325 7.125-.325v1.785H82.54l.0112-18.7337h9.78v1.81s-1.95-.3513-4.3062-.3513c-.9763 0-1.4638 0-2.6288.055-.055 1.055-.055 5.1963-.0275 6.6313 2.1412.0275 6.3937-.19 6.3937-.19m10.6226 1.3325c2.3537-.445 5.2974-1.3363 5.2974-4.8338 0-1.2975-.3512-2.405-1.3787-3.2425-.8912-.7325-1.8925-1.14-5.1063-1.14-.4324 0-5.4937-.105-5.4937-.105l-.001 18.7688h2.8025l-.01-9.8663 7.5037 9.8663h3.5438l-7.1575-9.4475zm2.4862-4.5363c0 3.7538-3.7275 3.9163-4.9437 3.97-.65.0275-.92.0275-1.4325-.0263 0-.5675-.0276-2.4587-.0276-3.7025 0-1.215 0-2.4575.0539-3.6725.3524-.055.9174-.135 1.7012-.135 1.9737 0 4.6487.4038 4.6487 3.5663m49.7563-1.17c-.37-1.1425-1.3075-2.6675-3.795-2.6675-2.9463 0-3.4588 2.1637-3.4588 3.11 0 2.1375 1.7838 2.8675 3.1675 3.4087 2.955 1.1363 3.47 1.325 4.42 2.1088 1.2513 1.0012 1.5213 2.435 1.5213 3.4612 0 2.8138-1.9825 6.0375-6.8087 6.0375-1.7888 0-3.5226-.435-4.9188-1.4925.2737-.9225.5162-1.5862.8263-2.5425.9387 1.71 2.385 2.8125 4.5274 2.8125 2.8438 0 4.01-1.8662 4.01-3.595 0-2.1925-1.545-3.0025-3.3662-3.7337-3.1625-1.325-3.515-1.4625-4.25-2.11-.9225-.7563-1.3588-2.1088-1.3588-3.3538 0-3.49 2.8238-5.2587 6.0125-5.2587 2.11 0 3.865.7825 4.3825 1.1412-.3437.9475-.9112 2.6738-.9112 2.6738M19.815 40.82c-2.2963 1.1787-4.8888 1.7437-7.5375 1.7437C4.515 42.5638 0 37.4913 0 30.6001c0-6.4563 4.0125-11.795 12.8125-11.795 3.0987 0 5.4237.6412 7.015 1.24-.006 1.1162-.002 2.2487 0 3.6712-1.005-1.8312-3.8538-3.4862-7.1488-3.4862-5.2862 0-8.7987 3.88-8.7987 10.3375 0 6.9562 4.315 10.4012 9.0675 10.4012 1.3675 0 4.37-.2762 6.8662-2.6662.001.79-.007 1.8525.001 2.5175m11.7464-17.64c-6.6487 0-10.4637 3.9775-10.4637 9.7613 0 6.0275 4.2775 9.6525 10.1925 9.6525 6.46 0 10.465-4.305 10.465-9.9788 0-6.1087-4.52-9.435-10.1938-9.435m-7.3837 9.735c0-6.1375 3.6375-8.5812 7.25-8.5812 1.8425 0 4.585.7325 6.05 3.2037.9512 1.6025 1.195 3.8013 1.195 5.2138 0 5.565-3.04 8.6875-7.3275 8.6875-4.1813 0-7.1675-3.2313-7.1675-8.5238m103.3775-.0612c-.1488.03-.52-.0125-.9763.0125H124.57c-.0113-.003-.0275-.003-.0388-.006 0 .004 0 .004.003.006h-4.4175v1.4238h4.5337c.0675 1.255.0588 2.7537.0188 5.8587-1.5987 1.0288-3.7362 1.0288-4.1162 1.0288-3.9775 0-7.7413-2.9-7.7413-8.5888 0-5.61 3.4925-8.3475 7.445-8.3475 4.01 0 5.4175 2.1688 6.0713 3.1975h.1837c.185-.515.4975-1.4712.9788-2.8012-1.7275-.8563-4.7175-1.5488-7.27-1.5488-7.19 0-10.49 4.4325-10.49 9.5538 0 5.825 4.1137 9.7575 10.1387 9.7575 2.985 0 4.99-.6538 7.5163-1.5213-.0838-.5962.035-6.4262.17-8.025M78.269 47.2714c-1.1762 0-2.1287.955-2.1287 2.1325 0 1.1788.9525 2.1338 2.1287 2.1338 1.1725 0 2.1288-.955 2.1288-2.1338 0-1.1775-.9563-2.1325-2.1288-2.1325m-8.9375.2656c-1.0288 0-1.8625.8363-1.8625 1.8675 0 1.03.8338 1.8663 1.8625 1.8663 1.0288 0 1.8613-.8363 1.8613-1.8663 0-1.0312-.8326-1.8675-1.8613-1.8675m-8.445.2675c-.8812 0-1.5975.715-1.5975 1.5988 0 .8837.7163 1.6 1.5975 1.6.8825 0 1.5975-.7163 1.5975-1.6 0-.8838-.715-1.5988-1.5975-1.5988m-7.8375.2663c-.735 0-1.3312.5962-1.3312 1.3325 0 .7375.5962 1.3325 1.3312 1.3325s1.3313-.595 1.3313-1.3325c0-.7363-.5963-1.3325-1.3313-1.3325m-7.27.2675c-.5875 0-1.0625.4775-1.0625 1.065 0 .59.475 1.0675 1.0625 1.0675s1.0638-.4775 1.0638-1.0675c0-.5875-.4763-1.065-1.0638-1.065m115.0062-30.135c.53 0 .96-.43.96-.9625s-.43-.9625-.96-.9625-.9612.43-.9612.9625.4313.9625.9613.9625m-63.6497.937c1.06 0 1.92-.8625 1.92-1.925 0-1.0638-.86-1.9263-1.92-1.9263-1.0625 0-1.9212.8625-1.9212 1.9263 0 1.0625.8587 1.925 1.9212 1.925m56.6813-.6163c.7075 0 1.28-.575 1.28-1.2825 0-.7087-.5725-1.285-1.28-1.285s-1.2813.5763-1.2813 1.285c0 .7075.5738 1.2825 1.2813 1.2825m-7.8807.321c.8838 0 1.6013-.7187 1.6013-1.6062 0-.885-.7175-1.6025-1.6013-1.6025-.8837 0-1.6.7175-1.6 1.6025 0 .8875.7163 1.6062 1.6 1.6062m-9.0212.32c1.06 0 1.9212-.8612 1.9212-1.925 0-1.0637-.8612-1.925-1.9212-1.925-1.0613 0-1.9213.8613-1.9213 1.925 0 1.0638.86 1.925 1.9213 1.925m-39.7788-8.9875c.7938 0 1.44-.6462 1.44-1.4437 0-.7963-.6462-1.445-1.44-1.445-.795 0-1.4425.6487-1.4425 1.445 0 .7975.6475 1.4437 1.4425 1.4437m0-8.2525c.5288 0 .96-.43.96-.9625S97.665 0 97.1362 0c-.5312 0-.9612.43-.9612.9625s.43.9625.9612.9625"/></g></svg>