<svg xmlns="http://www.w3.org/2000/svg" overflow="visible" viewBox="0 0 168.88 55.25" width="100" height="35">
<path fill="#6bb623" d="M55.25 55.248H0V0h55.25z"/><path d="M70.799 26.2h3.878v-4.692h3.28v12.275h-3.28V28.52h-3.878v5.263h-3.27V21.508h3.27zm12.037 3.978c0-.878.422-1.319 1.112-1.686.931.857 1.854 1.738 2.727 2.703-.612.463-1.128.676-1.865.676-.989 0-1.974-.635-1.974-1.693zm6.57-3.045c-.032.789-.242 1.599-.806 2.217-.689-.668-1.399-1.32-2.119-1.954 1.308-.76 2.642-1.55 2.642-3.101 0-2.293-2.11-3.028-4.263-3.028-1.926 0-4.091.769-4.091 2.938 0 1.077.496 1.919 1.485 2.696-1.516.707-2.416 1.641-2.416 3.346 0 2.536 2.314 3.736 4.653 3.736 1.337 0 2.768-.225 3.823-1.145.271.282.49.599.74.934h3.507l-2.183-2.431c1.14-1.131 1.812-2.644 1.887-4.209h-2.859zm-5.811-2.769c0-.616.542-1.092 1.306-1.092.757 0 1.371.37 1.371 1.092 0 .811-.9 1.306-1.496 1.659-.494-.39-1.181-.952-1.181-1.659zm13.646-.56h.87c1.242 0 2.393.21 2.393 1.356 0 1.387-1.338 1.423-2.393 1.423h-.87zm-3.273 9.968h3.273v-4.866h.689c1.214 0 1.638.534 2.308 2.646l.705 2.22h3.414l-1.191-3.351c-.616-1.494-.688-2.43-1.743-2.711v-.032c1.578-.372 2.355-1.464 2.355-3.104 0-2.112-1.773-3.098-3.963-3.098h-5.848v12.296zm20.42-5.215h1c1.129 0 2.421.125 2.421 1.466 0 1.25-1.255 1.422-2.454 1.422h-.967zm-3.278 5.215h5.178c2.207 0 4.798-.615 4.798-3.562 0-1.493-.851-2.377-2.483-2.709v-.038c1.373-.455 2.16-1.322 2.16-2.87 0-2.116-1.704-3.117-3.996-3.117h-5.656v12.296zm3.278-9.968h.948c1.093 0 2.15.104 2.15 1.234 0 1.038-1.11 1.298-2.183 1.298h-.916v-2.532zm11.841 7.538h5.07v2.43h-8.349V21.477h3.279zm8.868-3.715c0-2.132.791-3.931 2.779-3.931 1.993 0 2.79 1.799 2.79 3.931 0 2.027-.797 3.926-2.79 3.926-1.988 0-2.779-1.899-2.779-3.926zm-3.38 0c0 3.903 2.146 6.356 6.159 6.356 4.019 0 6.168-2.453 6.168-6.356 0-3.948-2.117-6.36-6.168-6.36-4.054 0-6.159 2.412-6.159 6.36zm24.33 5.86c-.934.229-1.979.496-3.647.496-3.274 0-7.063-1.654-7.063-6.305 0-4.284 2.986-6.412 7.042-6.412 1.256 0 2.473.281 3.65.634l-.264 2.655c-1.062-.582-2.079-.86-3.204-.86-2.334 0-3.848 1.69-3.848 3.983 0 2.414 1.71 3.874 4.106 3.874 1.077 0 2.171-.28 3.064-.638zm4.778-6.966h.035l3.772-5.025h3.899l-4.493 5.72 4.841 6.554h-4.123l-3.896-5.585h-.035v5.585h-3.251V21.496h3.251z"/></svg>